<svg xmlns="http://www.w3.org/2000/svg" viewBox="0 0 20 20" id="donate"><path d="M16.6225,5.9365A1.4975,1.4975,0,0,0,15.39,4.705l-4.8779-.7895a2.47,2.47,0,0,0-2.0762.6108L5.7226,6.9589a2.51,2.51,0,0,0-.7119,2.585l.1679.5527a3.0473,3.0473,0,1,0,3.6693,3.4625l4.386-1.3946,3.0766-1.3779a1.5111,1.5111,0,0,0,.8716-1.6236ZM5.85,15.1186a2.05,2.05,0,1,1,0-4.1c.034,0,.0639.0117.0974.0132l-.3049.167a1.6089,1.6089,0,0,0-.8428,1.42,1.766,1.766,0,0,0,.0439.3857,1.6263,1.6263,0,0,0,1.585,1.2432,1.643,1.643,0,0,0,.4819-.0723l.8067-.2564A2.0477,2.0477,0,0,1,5.85,15.1186ZM15.9048,9.872l-3.0269,1.36L6.6128,13.2206a.6283.6283,0,0,1-.502-.0566.6067.6067,0,0,1-.2929-.3838.7206.7206,0,0,1-.0186-.1616.6112.6112,0,0,1,.3208-.5415l3.7993-2.08A.5.5,0,1,0,9.44,9.12L7.2085,10.3411a2.9977,2.9977,0,0,0-1-.2969L5.9668,9.25a1.5047,1.5047,0,0,1,.4267-1.5493L9.1064,5.268A1.4684,1.4684,0,0,1,10.35,4.9023l4.8779.7895a.4982.4982,0,0,1,.4092.4121l.5586,3.2212A.5136.5136,0,0,1,15.9048,9.872Z"></path></svg>