<svg xmlns="http://www.w3.org/2000/svg" enable-background="new 0 0 32 32" viewBox="0 0 32 32" id="money"><path d="M23.93,8.07c-0.01-0.02-0.01-0.05-0.02-0.08C21.96,3.75,17.67,1,13,1C6.38,1,1,6.38,1,13c0,4.68,2.75,8.96,7,10.91c0.02,0.01,0.05,0.01,0.07,0.02C9.96,28.09,14.14,31,19,31c6.62,0,12-5.38,12-12C31,14.14,28.09,9.95,23.93,8.07z M7,19c0,0.72,0.08,1.43,0.2,2.12C4.61,19.26,3,16.25,3,13C3,7.49,7.49,3,13,3c3.25,0,6.26,1.61,8.12,4.2C20.43,7.08,19.72,7,19,7C12.38,7,7,12.38,7,19z M19,18c1.65,0,3,1.35,3,3c0,1.3-0.84,2.4-2,2.82V24c0,0.55-0.45,1-1,1s-1-0.45-1-1v-0.18c-1.16-0.42-2-1.52-2-2.82c0-0.55,0.45-1,1-1s1,0.45,1,1s0.45,1,1,1s1-0.45,1-1s-0.45-1-1-1c-1.65,0-3-1.35-3-3c0-1.3,0.84-2.4,2-2.82V14c0-0.55,0.45-1,1-1s1,0.45,1,1v0.18c1.16,0.42,2,1.52,2,2.82c0,0.55-0.45,1-1,1s-1-0.45-1-1s-0.45-1-1-1s-1,0.45-1,1S18.45,18,19,18z"></path></svg>