<svg xmlns="http://www.w3.org/2000/svg" fill-rule="evenodd" stroke-linejoin="round" stroke-miterlimit="2" clip-rule="evenodd" viewBox="0 0 32 32" id="hammer"><path d="M13,16l0,11c0,1.656 1.344,3 3,3c1.656,0 3,-1.344 3,-3l0,-11l-6,-0Zm13,-4l-0,-8c-0,-1.105 -0.895,-2 -2,-2c-2.518,0 -9.032,-0 -10.638,0c-0.468,-0 -0.921,0.164 -1.28,0.464l-5.362,4.468c-0.456,0.38 -0.72,0.943 -0.72,1.536l-0,3.532c-0,0.53 0.211,1.039 0.586,1.414c0.375,0.375 0.884,0.586 1.414,0.586c3.151,0 12.849,0 16,-0c1.105,0 2,-0.895 2,-2Z"></path></svg>