<svg xmlns="http://www.w3.org/2000/svg" viewBox="0 0 24 24" id="sleep"><path d="M20.9 15.6c-.1-.4-.5-.6-.9-.6h-4c-.6 0-1 .4-1 1s.4 1 1 1h1.6l-2.3 2.3c-.3.3-.4.7-.2 1.1.2.4.5.6.9.6h4c.6 0 1-.4 1-1s-.4-1-1-1h-1.6l2.3-2.3c.3-.3.4-.7.2-1.1z"></path><path d="M12 2C6.5 2 2 6.5 2 12s4.5 10 10 10c.6 0 1-.4 1-1s-.4-1-1-1c-4.4 0-8-3.6-8-8s3.6-8 8-8 8 3.6 8 8c0 .6.4 1 1 1s1-.4 1-1c0-5.5-4.5-10-10-10z"></path><path d="M13 8c-.6 0-1 .4-1 1v2.6l-2.7 2.7c-.4.4-.4 1 0 1.4.2.2.4.3.7.3s.5-.1.7-.3l3-3c.2-.2.3-.4.3-.7V9c0-.6-.4-1-1-1z"></path></svg>