<svg xmlns="http://www.w3.org/2000/svg" enable-background="new 0 0 24 24" viewBox="0 0 24 24" id="swap"><g><path d="M20.3169 5.6826c-.7153-.7148-1.626-1.2031-2.6338-1.4121-1.7344-.3594-3.6318-.3594-5.3662 0-1.0078.209-1.9185.6973-2.6338 1.4121C8.9786 6.3871 8.4968 7.2825 8.2816 8.2805 7.2882 8.4936 6.3899 8.9763 5.6831 9.6826c-.7148.7148-1.2031 1.625-1.4121 2.6338C4.0913 13.1846 4 14.0869 4 15s.0913 1.8154.271 2.6836c.209 1.0088.6973 1.9189 1.4121 2.6338.7153.7148 1.626 1.2031 2.6396 1.4131.8877.1787 1.7812.2676 2.6758.2676.896 0 1.7925-.0898 2.6846-.2686 1.0078-.209 1.9185-.6973 2.6338-1.4121.7045-.7045 1.1863-1.5999 1.4015-2.5979.9934-.2131 1.8917-.6958 2.5985-1.4021.7148-.7148 1.2031-1.625 1.4121-2.6338C21.9087 12.8154 22 11.9131 22 11s-.0913-1.8154-.271-2.6836C21.52 7.3076 21.0317 6.3975 20.3169 5.6826zM14.9028 18.9033c-.4385.4375-1.0005.7383-1.6201.8662-1.5146.3047-3.0508.3066-4.5596.001-.6255-.1289-1.1875-.4297-1.626-.8672-.438-.4385-.7383-1-.8682-1.626C6.0771 16.543 6 15.7773 6 15s.0771-1.543.229-2.2773c.1299-.626.4302-1.1875.8682-1.626.4385-.4375 1.0005-.7383 1.6196-.8662.1821-.0361.3745-.0732.582-.1035.2878-.0457.5916-.0774.9028-.0983.0767-.0051.1594-.0049.2377-.0085.228-.0105.4584-.0166.6922-.0136.2106.0024.4186.0176.627.0313.1565.0103.3127.0143.4686.0308.3552.0381.7067.0895 1.0498.1608.6255.1289 1.1875.4297 1.626.8672.438.4385.7383 1 .8682 1.626C15.9229 13.457 16 14.2227 16 15c0 .6133-.0415 1.1699-.1304 1.7197-.0269.1914-.064.3828-.0986.5576C15.6411 17.9033 15.3408 18.4648 14.9028 18.9033zM19.771 13.2773c-.1299.626-.4302 1.1875-.8682 1.626-.2642.2637-.5732.4775-.9126.6338C17.9966 15.3613 18 15.1826 18 15c0-.9131-.0913-1.8154-.271-2.6836-.209-1.0088-.6973-1.9189-1.4121-2.6338-.7153-.7148-1.626-1.2031-2.6338-1.4121-.4039-.0836-.8197-.1452-1.2385-.1895-.1852-.0199-.373-.0246-.56-.0368-.246-.0161-.49-.0334-.7337-.0366C11.1003 8.007 11.0507 8 11 8c-.1826 0-.3613.0029-.5371.0098.1567-.3408.3706-.6494.6343-.9131.4385-.4375 1.0005-.7383 1.626-.8672 1.4668-.3047 3.0869-.3047 4.5537 0 .6255.1289 1.1875.4297 1.626.8672.438.4385.7383 1 .8682 1.626C19.9229 9.457 20 10.2227 20 11S19.9229 12.543 19.771 13.2773zM4.5386 8.3545C4.019 7.7402 3.9111 6.9775 4.2427 6.2637 4.5264 5.6523 5.2188 5 6.313 5h.2322L6.2563 5.2734C5.8555 5.6533 5.8379 6.2861 6.2178 6.6875 6.4146 6.8955 6.6787 7 6.9438 7 7.1909 7 7.438 6.9092 7.6313 6.7266l2.1123-2C9.9434 4.5371 10.0562 4.2744 10.0562 4S9.9434 3.4629 9.7437 3.2734l-2.1123-2C7.231.8945 6.5986.9102 6.2178 1.3125 5.8379 1.7139 5.8555 2.3467 6.2563 2.7266L6.5452 3H6.313C4.6104 3 3.1216 3.9277 2.4287 5.4219 1.7754 6.8291 1.9985 8.4473 3.0112 9.6455 3.209 9.8799 3.4912 10 3.7754 10c.228 0 .4575-.0771.645-.2363C4.8423 9.4072 4.895 8.7764 4.5386 8.3545z"></path></g></svg>